<svg width="2000px" height="1299px"
 viewBox="0.00 0.00 373.91 242.99" xmlns="http://www.w3.org/2000/svg" xmlns:xlink="http://www.w3.org/1999/xlink">
<g id="graph0" class="graph" transform="scale(1.0 1.0) rotate(0) translate(4 238.99)">
<title>ContextMapGraph</title>
<polygon fill="white" stroke="transparent" points="-4,4 -4,-238.99 369.91,-238.99 369.91,4 -4,4"/>
<!-- Sample_ClientApplication -->
<g id="node1" class="node">
<title>Sample_ClientApplication</title>
<polygon fill="none" stroke="black" stroke-width="2" points="355.22,-37.75 358.26,-40.53 360.82,-43.33 362.86,-46.12 364.39,-48.91 365.39,-51.68 365.86,-54.41 365.79,-57.11 365.18,-59.75 364.03,-62.33 362.33,-64.84 360.09,-67.28 357.31,-69.63 354.01,-71.88 350.18,-74.04 345.84,-76.09 341,-78.03 335.68,-79.86 329.89,-81.56 323.65,-83.15 316.98,-84.6 309.9,-85.94 302.43,-87.14 294.61,-88.22 286.45,-89.17 277.98,-89.99 269.23,-90.68 260.24,-91.26 251.02,-91.7 241.61,-92.03 232.05,-92.24 222.36,-92.34 212.57,-92.33 202.72,-92.21 192.85,-91.99 182.97,-91.67 173.13,-91.25 163.35,-90.75 153.67,-90.15 144.11,-89.47 134.7,-88.72 125.48,-87.88 116.46,-86.98 107.68,-86 99.16,-84.96 90.92,-83.86 82.99,-82.69 75.38,-81.47 68.12,-80.19 61.21,-78.85 54.69,-77.46 48.56,-76.03 42.83,-74.54 37.52,-73 32.64,-71.42 28.19,-69.79 24.19,-68.12 20.64,-66.4 17.54,-64.64 14.89,-62.84 12.71,-61 10.98,-59.12 9.71,-57.2 8.9,-55.24 8.53,-53.25 8.62,-51.23 9.15,-49.18 10.13,-47.1 11.53,-44.99 13.36,-42.87 15.61,-40.73 18.26,-38.58 21.32,-36.42 24.77,-34.26 28.6,-32.11 32.8,-29.96 37.35,-27.83 42.26,-25.72 47.5,-23.64 53.07,-21.6 58.95,-19.6 65.12,-17.65 71.58,-15.76 78.32,-13.94 85.31,-12.2 92.55,-10.54 100.01,-8.97 107.69,-7.5 115.57,-6.13 123.62,-4.89 131.85,-3.76 140.22,-2.76 148.72,-1.9 157.34,-1.18 166.05,-0.61 174.83,-0.18 183.67,0.08 192.55,0.19 201.44,0.14 210.32,-0.08 219.18,-0.47 227.99,-1.01 236.72,-1.73 245.36,-2.61 253.88,-3.65 262.26,-4.85 270.48,-6.21 278.5,-7.72 286.32,-9.37 293.89,-11.16 301.21,-13.09 308.24,-15.14 314.97,-17.31 321.37,-19.59 327.42,-21.97 333.1,-24.44 338.38,-26.99 343.26,-29.6 347.7,-32.28 351.69,-35 355.22,-37.75"/>
<text text-anchor="middle" x="182.95" y="-44.89" font-family="sans-serif" font-size="16.00">Sample_ClientApplication</text>
</g>
<!-- TLA_Resolver -->
<g id="node2" class="node">
<title>TLA_Resolver</title>
<polygon fill="none" stroke="black" stroke-width="2" points="172.92,-147.13 179.9,-146.83 186.87,-146.64 193.79,-146.58 200.64,-146.64 207.4,-146.82 214.02,-147.13 220.5,-147.57 226.81,-148.13 232.91,-148.81 238.8,-149.61 244.45,-150.53 249.84,-151.57 254.96,-152.72 259.79,-153.99 264.32,-155.36 268.53,-156.84 272.42,-158.41 275.98,-160.08 279.2,-161.85 282.08,-163.69 284.62,-165.62 286.81,-167.62 288.67,-169.69 290.18,-171.82 291.36,-174 292.2,-176.24 292.73,-178.51 292.93,-180.82 292.84,-183.16 292.44,-185.51 291.76,-187.88 290.81,-190.26 289.59,-192.63 288.12,-195 286.42,-197.35 284.48,-199.67 282.34,-201.97 279.99,-204.23 277.46,-206.45 274.75,-208.62 271.87,-210.73 268.83,-212.78 265.66,-214.76 262.34,-216.67 258.9,-218.5 255.35,-220.24 251.68,-221.9 247.91,-223.47 244.05,-224.94 240.09,-226.31 236.05,-227.58 231.93,-228.74 227.73,-229.79 223.46,-230.73 219.12,-231.56 214.71,-232.27 210.25,-232.87 205.72,-233.35 201.13,-233.71 196.49,-233.95 191.79,-234.08 187.05,-234.09 182.27,-233.99 177.44,-233.77 172.58,-233.43 167.69,-232.98 162.78,-232.42 157.85,-231.76 152.91,-230.98 147.97,-230.11 143.05,-229.13 138.14,-228.05 133.27,-226.88 128.44,-225.61 123.67,-224.26 118.97,-222.82 114.36,-221.3 109.85,-219.7 105.45,-218.04 101.2,-216.3 97.09,-214.49 93.16,-212.63 89.42,-210.71 85.88,-208.74 82.56,-206.73 79.49,-204.67 76.68,-202.58 74.14,-200.45 71.9,-198.3 69.97,-196.13 68.36,-193.94 67.09,-191.74 66.17,-189.54 65.61,-187.33 65.43,-185.13 65.62,-182.94 66.2,-180.77 67.17,-178.62 68.54,-176.49 70.3,-174.4 72.45,-172.35 75,-170.33 77.93,-168.37 81.25,-166.46 84.93,-164.61 88.97,-162.83 93.36,-161.11 98.08,-159.47 103.12,-157.91 108.45,-156.43 114.05,-155.04 119.91,-153.74 126,-152.54 132.3,-151.44 138.78,-150.44 145.41,-149.55 152.17,-148.78 159.02,-148.11 165.95,-147.56 172.92,-147.13"/>
<text text-anchor="middle" x="182.95" y="-186.88" font-family="sans-serif" font-size="16.00">TLA_Resolver</text>
</g>
<!-- TLA_Resolver&#45;&gt;Sample_ClientApplication -->
<g id="edge1" class="edge">
<title>TLA_Resolver&#45;&gt;Sample_ClientApplication</title>
<path fill="none" stroke="black" stroke-width="2" d="M182.95,-146.54C182.95,-129.18 182.95,-109.24 182.95,-91.97"/>
<text text-anchor="middle" x="258.45" y="-118.78" font-family="sans-serif" font-size="12.00"> &#160;&#160;&#160;&#160;&#160;&#160;&#160;&#160;&#160;&#160;&#160;&#160;&#160;&#160;&#160;&#160;&#160;&#160;&#160;&#160;&#160;&#160;&#160;&#160;&#160;&#160;&#160;&#160;&#160;&#160;&#160;&#160;&#160;&#160;&#160;&#160;&#160;&#160;&#160;</text>
<polygon fill="white" stroke="transparent" points="175.95,-82.97 175.95,-99.97 189.95,-99.97 189.95,-82.97 175.95,-82.97"/>
<text text-anchor="start" x="177.95" y="-88.37" font-family="sans-serif" font-size="12.00">D</text>
<polygon fill="white" stroke="transparent" points="147.95,-136.54 147.95,-155.54 163.95,-155.54 163.95,-136.54 147.95,-136.54"/>
<polyline fill="none" stroke="black" points="163.95,-136.54 163.95,-155.54 "/>
<text text-anchor="start" x="150.95" y="-142.94" font-family="sans-serif" font-size="12.00">U</text>
<polygon fill="white" stroke="transparent" points="163.95,-136.54 163.95,-155.54 218.95,-155.54 218.95,-136.54 163.95,-136.54"/>
<polygon fill="none" stroke="black" points="163.95,-136.54 163.95,-155.54 218.95,-155.54 218.95,-136.54 163.95,-136.54"/>
<text text-anchor="start" x="166.95" y="-142.94" font-family="sans-serif" font-size="12.00">OHS, PL</text>
</g>
</g>
</svg>
